<svg role="img" viewBox="0 0 24 24"
  xmlns="http://www.w3.org/2000/svg">
  <title>Amazon Web Services</title>
  <path fill="currentColor" d="M6.763 10.036c0 .296.032.535.088.71.064.176.144.368.256.576.04.063.056.127.056.183 0 .08-.048.16-.152.24l-.503.335c-.072.048-.144.072-.208.072-.08 0-.16-.04-.239-.112-.112-.12-.208-.248-.28-.384-.072-.136-.144-.288-.224-.463-.56.66-1.263.99-2.111.99-.535 0-1.032-.153-1.432-.454-.4-.304-.624-.783-.624-1.335 0-.591.208-1.071.632-1.431.424-.36 1.015-.56 1.727-.56.24 0 .487.016.743.056.255.04.519.096.791.16v-.535c0-.543-.112-.92-.336-1.143-.232-.224-.631-.336-1.215-.336-.263 0-.535.032-.815.088-.28.064-.551.144-.815.24-.12.047-.207.079-.263.095-.056.016-.096.024-.12.024-.104 0-.16-.076-.16-.227v-.36c0-.12.016-.207.056-.264.04-.056.12-.104.239-.16.264-.135.583-.247.951-.335.368-.087.76-.128 1.175-.128.895 0 1.551.207 1.967.623.415.416.624 1.048.624 1.895v2.494zm-2.543.991c.231 0 .471-.04.727-.127.255-.088.48-.24.671-.432.12-.12.207-.256.256-.415.048-.16.08-.343.08-.543v-.263c-.216-.047-.447-.087-.695-.111-.248-.024-.495-.04-.735-.04-.527 0-.911.104-1.159.319-.248.216-.368.535-.368.967 0 .4.096.695.295.911.192.216.479.327.823.327zm5.031.759c-.12 0-.199-.024-.247-.064-.048-.048-.088-.143-.12-.263l-1.335-4.407c-.032-.112-.047-.184-.047-.223 0-.088.04-.135.127-.135h.519c.12 0 .199.023.239.063.048.048.08.127.112.263l.967 3.823.903-3.823c.024-.128.056-.207.104-.263.048-.04.135-.063.247-.063h.423c.12 0 .199.023.247.063.048.048.088.127.104.263l.911 3.879.991-3.879c.032-.128.072-.207.112-.263.048-.04.127-.063.239-.063h.495c.088 0 .135.04.135.135 0 .032-.008.063-.016.103-.008.04-.024.095-.047.175l-1.367 4.407c-.032.128-.072.207-.12.263-.047.04-.127.063-.247.063h-.455c-.12 0-.199-.024-.247-.064-.048-.048-.088-.143-.104-.263l-.895-3.727-.887 3.719c-.024.128-.056.207-.104.263-.048.048-.135.064-.247.064h-.455zm6.959.135c-.28 0-.56-.032-.831-.088-.272-.056-.487-.12-.647-.191-.096-.048-.16-.104-.184-.144-.024-.04-.04-.104-.04-.175v-.375c0-.151.056-.227.16-.227.048 0 .096.008.144.024.048.016.12.048.2.08.271.12.56.207.863.263.304.056.6.08.903.08.479 0 .847-.088 1.103-.255.255-.168.392-.423.392-.767 0-.224-.072-.415-.207-.575-.136-.16-.424-.304-.855-.432l-1.231-.383c-.631-.2-1.095-.495-1.375-.879-.279-.384-.423-.808-.423-1.271 0-.36.079-.679.239-.967.16-.288.367-.535.631-.743.263-.207.575-.359.927-.455.352-.095.727-.143 1.127-.143.12 0 .239.008.36.016.127.008.247.024.36.04.112.016.215.04.319.056.104.024.183.04.239.064.088.032.151.072.191.112.04.04.064.104.064.191v.351c0 .152-.056.231-.16.231-.064 0-.167-.032-.303-.088-.48-.216-1.015-.32-1.607-.32-.431 0-.775.071-1.023.207-.248.136-.375.359-.375.695 0 .224.08.415.239.591.159.176.463.336.911.479l1.207.375c.62.2 1.071.479 1.335.847.264.368.392.791.392 1.271 0 .368-.08.703-.231 1.007-.16.304-.367.567-.639.791-.271.224-.591.391-.967.512-.359.12-.767.184-1.215.184z"/>
</svg>
