<svg fill="#fafafa" role="img" viewBox="0 0 24 24" xmlns="http://www.w3.org/2000/svg"><title>Postman</title><path d="M13.527.099C6.955-.744.942 3.9.099 10.473c-.843 6.572 3.8 12.585 10.373 13.428 6.573.843 12.587-3.801 13.428-10.374C24.744 6.955 20.101.943 13.527.099zm2.471 7.485a.855.855 0 0 0-.593.25l-4.453 4.453-.307-.307-.643-.643 4.44-4.452a.855.855 0 1 0 1.556.699zm-1.47 6.286-1.47 1.469a.428.428 0 1 1-.605-.606l1.469-1.469 1.47 1.47-.864.869zm-4.265 1.47-1.47 1.469a.428.428 0 0 1-.605-.605l1.469-1.47.606.606zm-2.953-.953a.855.855 0 1 0 1.21 1.21.855.855 0 0 0-1.21-1.21zm7.64-5.853-3.9 3.9-.605-.606 3.9-3.899.605.605zm-4.505 4.505-.643.643-3.09 3.09a.428.428 0 0 1-.605-.605l2.485-2.485.643-.643.605.605.605-.605zm6.573-6.573a.855.855 0 0 0-1.21 0L10.39 11.44l-.605-.605 5.412-5.412a.855.855 0 0 0 0-1.21.855.855 0 0 0-1.21 0L8.575 9.624l-.605-.605L14.18 2.81a.855.855 0 1 0-1.21-1.21l-6.21 6.21-.605-.605a.855.855 0 1 0-1.21 1.21l.605.605L3.44 11.13a.428.428 0 0 0 .605.605l2.11-2.11.605.605-2.485 2.485a.428.428 0 0 0 .605.605l2.485-2.485.605.605-3.09 3.09a.428.428 0 0 0 .605.605l3.09-3.09.643.643L5.78 16.525a.428.428 0 0 0 .605.605l3.537-3.537.643.643-.868.869a.428.428 0 0 0 .605.605l.869-.869.643.643-1.469 1.47a.428.428 0 0 0 .605.605l1.47-1.47.605.606-1.47 1.469a.428.428 0 0 0 .606.605l1.469-1.469.606.605-.869.869a.428.428 0 1 0 .605.605l.869-.869z"/></svg>
